<svg width="114" height="26" viewBox="0 0 114 26" fill="none" xmlns="http://www.w3.org/2000/svg">
<g clip-path="url(#clip0_1273_410)">
<path d="M38.8272 20.7595H35.7941V5.33104C35.9122 5.31791 36.0042 5.29165 36.0961 5.29165C38.3414 5.29165 40.5867 5.25226 42.8189 5.33104C44.5128 5.38356 46.0228 5.94818 47.047 7.40568C49.3974 10.7409 47.349 15.3366 43.3179 15.6911C42.0311 15.8093 40.7312 15.7699 39.4312 15.7961C39.2474 15.7961 39.0505 15.7961 38.8141 15.7961V20.7595H38.8272ZM38.8272 12.9205C40.2453 12.9205 41.5978 12.9993 42.9503 12.8943C44.1845 12.8024 44.8542 11.8963 44.8673 10.557C44.8805 9.24396 44.2239 8.32482 42.9765 8.19351C41.7028 8.06221 40.4292 8.11473 39.1424 8.08847C39.0373 8.08847 38.9323 8.11473 38.801 8.12786C38.801 9.65101 38.801 11.1479 38.801 12.6448C38.801 12.7367 38.801 12.8286 38.8141 12.8943L38.8272 12.9205Z" fill="#262626"/>
<path d="M52.7851 20.7595H50.0014V4.00485H52.7588V10.5833C52.8639 10.5308 52.9295 10.5176 52.9558 10.4782C54.2426 8.63996 56.4879 8.42987 58.3919 9.19145C60.1908 9.91363 61.0968 11.3711 61.4119 13.2094C61.517 13.8528 61.517 14.5093 61.5301 15.1659C61.5432 16.9122 61.5301 18.6586 61.5301 20.3919C61.5301 20.4969 61.5301 20.6151 61.5301 20.7464H58.7333C58.7333 20.5888 58.7333 20.4313 58.7333 20.2606C58.7333 18.4223 58.7333 16.584 58.7333 14.7457C58.7333 14.3255 58.6676 13.8791 58.5626 13.472C58.1686 11.9226 56.9606 11.3317 55.5688 11.4368C53.8093 11.5812 52.8245 12.6842 52.7982 14.4962C52.772 16.4002 52.7982 18.3041 52.7982 20.208C52.7982 20.3787 52.7982 20.5494 52.7982 20.7726L52.7851 20.7595Z" fill="#262626"/>
<path d="M75.9344 20.7595H73.4133V18.6455C73.2688 18.8556 73.1901 18.9475 73.1375 19.0526C72.3891 20.3 71.2599 20.9696 69.8286 21.0747C66.0733 21.3635 63.2764 18.6455 63.4209 14.877C63.5259 11.9226 65.1016 9.83486 67.8065 9.04702C70.5245 8.24605 73.4527 9.19146 74.9233 11.3186C75.5273 12.1984 75.9081 13.17 75.9344 14.2205C76 16.3476 75.9737 18.4748 75.9737 20.602C75.9737 20.6414 75.9475 20.6939 75.9344 20.7595ZM73.1507 14.9821C73.1507 12.8812 71.7588 11.4237 69.7236 11.4237C67.7015 11.4237 66.2571 12.8943 66.2571 14.9689C66.2571 17.0304 67.6752 18.4879 69.6842 18.5011C71.7457 18.5011 73.1638 17.0961 73.1638 14.9952L73.1507 14.9821Z" fill="#262626"/>
<path d="M95.4333 21.1009C92.3608 21.1009 89.971 19.3545 89.3144 16.5183C88.2903 12.159 91.4416 8.3117 96.2212 8.82379C98.7028 9.0864 100.528 10.3469 101.368 12.7367C102.773 16.7416 100.292 21.0878 95.4464 21.0878L95.4333 21.1009ZM98.8604 14.9427C98.8604 12.8549 97.4292 11.3843 95.4071 11.3974C93.3718 11.4237 91.9931 12.8418 91.98 14.9164C91.9668 17.0042 93.3718 18.4617 95.4202 18.4617C97.4817 18.4617 98.8735 17.0436 98.8735 14.9295L98.8604 14.9427Z" fill="#262626"/>
<path d="M77.904 17.3456H80.6614C80.7664 18.0415 81.2391 18.4223 81.8957 18.5536C82.7623 18.7112 83.6289 18.7505 84.3905 18.2253C84.7319 17.989 84.8632 17.6344 84.8238 17.2274C84.7844 16.8203 84.5218 16.5709 84.1541 16.4921C83.4713 16.3345 82.7754 16.2295 82.0926 16.0982C81.5937 16.0062 81.0816 15.9275 80.5957 15.8093C78.0353 15.1528 77.6807 12.9993 78.4029 11.1742C78.7574 10.2813 79.414 9.65103 80.2937 9.2965C82.0007 8.58745 83.7339 8.58745 85.4015 9.40154C86.6227 9.99242 87.3186 11.0035 87.4368 12.4216H84.6793C84.1541 11.2792 82.4734 10.859 81.423 11.6337C81.0553 11.8964 80.8846 12.264 80.9503 12.7105C81.0159 13.1306 81.3179 13.3539 81.6856 13.4458C82.4734 13.6165 83.2875 13.7215 84.0885 13.8922C84.6531 14.0104 85.2177 14.1286 85.7429 14.3387C88.3297 15.3366 88.0277 18.4748 86.6489 19.7879C85.8611 20.5363 84.9157 20.9171 83.8652 21.0615C82.5653 21.2322 81.2785 21.1534 80.0574 20.5888C78.6787 19.9586 77.8252 18.698 77.8908 17.3718L77.904 17.3456Z" fill="#262626"/>
<path d="M114 14.0892H111.098C111.085 13.8922 111.072 13.7084 111.059 13.5245C110.941 11.8832 109.89 11.3449 108.59 11.4368C107.159 11.5418 106.463 12.3428 106.45 13.8003C106.437 15.9143 106.45 18.0152 106.45 20.1292C106.45 20.3262 106.45 20.51 106.45 20.7464H103.692C103.692 20.6545 103.653 20.5232 103.653 20.405C103.653 18.2122 103.653 16.0194 103.653 13.8397C103.653 10.0449 106.319 8.52178 109.522 8.83691C111.361 9.02074 112.818 9.80858 113.475 11.6206C113.751 12.3822 113.829 13.2225 114.026 14.1023L114 14.0892Z" fill="#262626"/>
<path d="M20.0636 0H5.72495C2.56315 0 0 2.56315 0 5.72495V20.0636C0 23.2254 2.56315 25.7885 5.72495 25.7885H20.0636C23.2254 25.7885 25.7885 23.2254 25.7885 20.0636V5.72495C25.7885 2.56315 23.2254 0 20.0636 0Z" fill="#262626"/>
<path d="M10.2025 14.7194V21.1271H7.49757C7.49757 20.9958 7.48444 20.8777 7.48444 20.7595C7.48444 17.3455 7.47131 13.9316 7.48444 10.5176C7.5107 6.6966 10.4782 4.31996 14.2336 4.71388C17.0304 5.01589 18.8162 6.51278 19.4596 9.1389C20.2605 12.3953 18.7899 15.586 15.4941 16.4264C13.4589 16.9516 11.6337 16.5708 10.1894 14.7325L10.2025 14.7194ZM13.5114 14.076C15.5072 14.076 16.8991 12.6973 16.9122 10.6752C16.9254 8.6662 15.5598 7.23496 13.5639 7.2087C11.6337 7.18244 10.2025 8.61367 10.1894 10.5964C10.1894 12.6448 11.5418 14.0629 13.4983 14.076H13.5114Z" fill="white"/>
</g>
<defs>
<clipPath id="clip0_1273_410">
<rect width="114" height="25.7885" fill="white"/>
</clipPath>
</defs>
</svg>
